HIERARCHY
ROOT hip
{
  OFFSET 0 0 0
  CHANNELS 6 Xposition Yposition Zposition Zrotation Yrotation Xrotation
  JOINT abdomen
  {
    OFFSET 0 20.6881 -0.73152
    CHANNELS 3 Zrotation Xrotation Yrotation
    JOINT chest
    {
      OFFSET 0 11.7043 -0.48768
      CHANNELS 3 Zrotation Xrotation Yrotation
      JOINT neck
      {
        OFFSET 0 22.1894 -2.19456
        CHANNELS 3 Zrotation Xrotation Yrotation
        JOINT head
        {
          OFFSET -0.24384 7.07133 1.2192
          CHANNELS 3 Zrotation Xrotation Yrotation
          JOINT leftEye
          {
            OFFSET 4.14528 8.04674 8.04672
            CHANNELS 3 Zrotation Xrotation Yrotation
            End Site
            {
              OFFSET 1 0 0
            }
          }
          JOINT rightEye
          {
            OFFSET -3.6576 8.04674 8.04672
            CHANNELS 3 Zrotation Xrotation Yrotation
            End Site
            {
              OFFSET 1 0 0
            }
          }
        }
      }
      JOINT rCollar
      {
        OFFSET -2.68224 19.2634 -4.8768
        CHANNELS 3 Zrotation Xrotation Yrotation
        JOINT rShldr
        {
          OFFSET -8.77824 -1.95073 1.46304
          CHANNELS 3 Zrotation Xrotation Yrotation
          JOINT rForeArm
          {
            OFFSET -28.1742 -1.7115 0.48768
            CHANNELS 3 Zrotation Xrotation Yrotation
            JOINT rHand
            {
              OFFSET -22.5879 0.773209 7.07136
              CHANNELS 3 Zrotation Xrotation Yrotation
              JOINT rThumb1
              {
                OFFSET -1.2192 -0.487915 3.41376
                CHANNELS 3 Zrotation Xrotation Yrotation
                JOINT rThumb2
                {
                  OFFSET -3.37035 -0.52449 3.41376
                  CHANNELS 3 Zrotation Xrotation Yrotation
                  End Site
                  {
                    OFFSET -1.78271 -1.18214 1.43049
                  }
                }
              }
              JOINT rIndex1
              {
                OFFSET -7.75947 0.938293 5.60832
                CHANNELS 3 Zrotation Xrotation Yrotation
                JOINT rIndex2
                {
                  OFFSET -2.54057 -0.884171 1.56538
                  CHANNELS 3 Zrotation Xrotation Yrotation
                  End Site
                  {
                    OFFSET -1.62519 -0.234802 1.16502
                  }
                }
              }
              JOINT rMid1
              {
                OFFSET -8.24714 1.18213 3.41376
                CHANNELS 3 Zrotation Xrotation Yrotation
                JOINT rMid2
                {
                  OFFSET -3.10165 -0.590103 1.0647
                  CHANNELS 3 Zrotation Xrotation Yrotation
                  End Site
                  {
                    OFFSET -2.48547 -0.328903 0.83742
                  }
                }
              }
              JOINT rRing1
              {
                OFFSET -8.82822 0.546677 1.51678
                CHANNELS 3 Zrotation Xrotation Yrotation
                JOINT rRing2
                {
                  OFFSET -2.60934 -0.819778 -0.0198488
                  CHANNELS 3 Zrotation Xrotation Yrotation
                  End Site
                  {
                    OFFSET -2.33842 -0.294052 0.168128
                  }
                }
              }
              JOINT rPinky1
              {
                OFFSET -8.27202 -0.0477905 -0.4584
                CHANNELS 3 Zrotation Xrotation Yrotation
                JOINT rPinky2
                {
                  OFFSET -1.82734 -0.647385 -0.700984
                  CHANNELS 3 Zrotation Xrotation Yrotation
                  End Site
                  {
                    OFFSET -1.69225 -0.51767 -0.607171
                  }
                }
              }
            }
          }
        }
      }
      JOINT lCollar
      {
        OFFSET 2.68224 19.2634 -4.8768
        CHANNELS 3 Zrotation Xrotation Yrotation
        JOINT lShldr
        {
          OFFSET 8.77824 -1.95073 1.46304
          CHANNELS 3 Zrotation Xrotation Yrotation
          JOINT lForeArm
          {
            OFFSET 28.1742 -1.7115 0.48768
            CHANNELS 3 Zrotation Xrotation Yrotation
            JOINT lHand
            {
              OFFSET 22.5879 0.773209 7.07136
              CHANNELS 3 Zrotation Xrotation Yrotation
              JOINT lThumb1
              {
                OFFSET 1.2192 -0.487915 3.41376
                CHANNELS 3 Zrotation Xrotation Yrotation
                JOINT lThumb2
                {
                  OFFSET 3.37035 -0.52449 3.41376
                  CHANNELS 3 Zrotation Xrotation Yrotation
                  End Site
                  {
                    OFFSET 1.78271 -1.18214 1.43049
                  }
                }
              }
              JOINT lIndex1
              {
                OFFSET 7.75947 0.938293 5.60832
                CHANNELS 3 Zrotation Xrotation Yrotation
                JOINT lIndex2
                {
                  OFFSET 2.54057 -0.884171 1.56538
                  CHANNELS 3 Zrotation Xrotation Yrotation
                  End Site
                  {
                    OFFSET 1.62519 -0.234802 1.16502
                  }
                }
              }
              JOINT lMid1
              {
                OFFSET 8.24714 1.18213 3.41376
                CHANNELS 3 Zrotation Xrotation Yrotation
                JOINT lMid2
                {
                  OFFSET 3.10165 -0.590103 1.0647
                  CHANNELS 3 Zrotation Xrotation Yrotation
                  End Site
                  {
                    OFFSET 2.48547 -0.328903 0.83742
                  }
                }
              }
              JOINT lRing1
              {
                OFFSET 8.82822 0.546677 1.51678
                CHANNELS 3 Zrotation Xrotation Yrotation
                JOINT lRing2
                {
                  OFFSET 2.60934 -0.819778 -0.0198488
                  CHANNELS 3 Zrotation Xrotation Yrotation
                  End Site
                  {
                    OFFSET 2.33842 -0.294052 0.168128
                  }
                }
              }
              JOINT lPinky1
              {
                OFFSET 8.27202 -0.0477905 -0.4584
                CHANNELS 3 Zrotation Xrotation Yrotation
                JOINT lPinky2
                {
                  OFFSET 1.82734 -0.647385 -0.700984
                  CHANNELS 3 Zrotation Xrotation Yrotation
                  End Site
                  {
                    OFFSET 1.69225 -0.51767 -0.607171
                  }
                }
              }
            }
          }
        }
      }
    }
  }
  JOINT rButtock
  {
    OFFSET -8.77824 4.35084 1.2192
    CHANNELS 3 Zrotation Xrotation Yrotation
    JOINT rThigh
    {
      OFFSET 0 -1.70687 -2.19456
      CHANNELS 3 Zrotation Xrotation Yrotation
      JOINT rShin
      {
        OFFSET 0 -36.8199 0.73152
        CHANNELS 3 Zrotation Xrotation Yrotation
        JOINT rFoot
        {
          OFFSET 0.73152 -45.1104 -5.12064
          CHANNELS 3 Zrotation Xrotation Yrotation
          End Site
          {
            OFFSET -1.1221 -3.69964 12.103
          }
        }
      }
    }
  }
  JOINT lButtock
  {
    OFFSET 8.77824 4.35084 1.2192
    CHANNELS 3 Zrotation Xrotation Yrotation
    JOINT lThigh
    {
      OFFSET 0 -1.70687 -2.19456
      CHANNELS 3 Zrotation Xrotation Yrotation
      JOINT lShin
      {
        OFFSET 0 -36.8199 0.73152
        CHANNELS 3 Zrotation Xrotation Yrotation
        JOINT lFoot
        {
          OFFSET -0.73152 -45.1104 -5.12064
          CHANNELS 3 Zrotation Xrotation Yrotation
          End Site
          {
            OFFSET 1.1221 -3.69964 12.103
          }
        }
      }
    }
  }
}
MOTION
Frames:	4
Frame Time:	0.00833333
-25.012 85.1968 18.3757 0.0 0.0 0.0 0.583972 -0.00303824 0.0166887 0.161171 -0.0046852 0.0279255 -1.55668e-14 0.0 -2.48482e-17 -4.6587e-14 3.18055e-15 -1.02498e-16 -0.0 0.0 0.0 -0.0 0.0 0.0 -7.70443e-15 1.02887e-17 1.49089e-16 -1.62683e-13 6.21202e-18 -5.96354e-16 -2.81072e-12 8.48612e-13 9.54166e-15 -3.21994e-11 -8.02966e-13 -1.36764e-13 -7.59489e-11 1.04207e-13 -2.51264e-13 -1.31173e-10 1.81292e-13 -4.16653e-13 -7.59461e-11 1.05356e-13 -2.57625e-13 7.73091 5.47488 0.417314 -7.59504e-11 1.03766e-13 -2.44903e-13 2.90554 0.965183 0.102902 -7.5946e-11 1.04362e-13 -2.43312e-13 10.2786 0.731801 0.0259123 -7.59538e-11 1.07741e-13 -2.35361e-13 2.22167 -0.733487 -0.20892 -7.90069e-15 1.06769e-17 -1.98785e-16 -1.64614e-13 -6.21202e-18 -1.78906e-15 -2.81499e-12 -8.33305e-13 2.22639e-14 -3.21927e-11 8.90406e-13 -1.27222e-13 -7.59391e-11 1.27117e-13 -2.44903e-13 -1.3113e-10 2.25819e-13 -4.16653e-13 -7.59437e-11 1.26825e-13 -2.29e-13 -7.73091 5.47488 -0.417314 -7.59382e-11 1.26825e-13 -2.48083e-13 -2.90554 0.965183 -0.102902 -7.59416e-11 1.27023e-13 -2.44108e-13 -10.2786 0.731801 -0.0259123 -7.59298e-11 1.29608e-13 -2.57625e-13 -2.22167 -0.733487 0.20892 -2.03217e-16 0.0 -3.88251e-19 0.939938 -4.56522 -0.0787546 -0.00191263 2.71744 -0.00753881 -0.500985 1.84802 0.0947528 2.03217e-16 0.0 3.88251e-19 -0.0508117 -2.31867 0.0217195 0.00816052 -1.35177 0.0697878 0.492835 3.67058 -0.130812
-27.7208 83.8274 15.8559 17.9939 -78.7349 -14.9953 -1.84981 0.0401138 1.67778 0.266648 -0.306651 0.495312 -1.37425 0.866313 -0.161378 2.64686 -5.32023 0.429387 -0.0 0.0 0.0 -0.0 0.0 0.0 -8.49782e-14 -2.60814e-13 1.43847e-14 20.3662 8.82308 -0.51348 -4.73303 -2.26359 7.26578 0.0224105 3.32301 0.46419 1.24666e-09 1.1324e-09 -1.53485e-10 2.15233e-09 1.95664e-09 -2.8028e-10 1.24666e-09 1.1324e-09 -1.5349e-10 7.73091 5.47488 0.417314 1.24666e-09 1.1324e-09 -1.53479e-10 2.90554 0.965183 0.102902 1.24666e-09 1.1324e-09 -1.53478e-10 10.2786 0.731801 0.0259123 1.24665e-09 1.13241e-09 -1.5347e-10 2.22167 -0.733487 -0.20892 -8.51195e-14 -2.60813e-13 1.40912e-14 -20.6408 1.73084 0.289374 3.23456 -1.31657 -5.20617 -0.00513294 1.58931 -0.223053 5.18608e-10 1.17218e-09 2.22093e-09 9.08131e-10 2.02319e-09 3.83514e-09 5.18604e-10 1.17218e-09 2.22094e-09 -7.73091 5.47488 -0.417314 5.18609e-10 1.17218e-09 2.22093e-09 -2.90554 0.965183 -0.102902 5.18604e-10 1.17218e-09 2.22093e-09 -10.2786 0.731801 -0.0259123 5.18615e-10 1.17218e-09 2.22092e-09 -2.22167 -0.733487 0.20892 -2.03217e-16 0.0 -3.88251e-19 -0.360324 -6.98865 4.98604 0.0393271 10.7483 0.180141 -1.44099 -4.89875 -5.95114 2.03217e-16 0.0 3.88251e-19 -0.889029 -5.42893 -2.15465 -0.0102834 6.06611 -0.0675412 0.811033 -0.718916 3.46203
-27.7052 83.8266 15.8772 18.642 -78.7443 -15.583 -4.43064 0.0800137 3.43478 0.386101 -0.624231 0.98983 -2.82228 1.78036 -0.331635 5.5353 -10.9358 0.896721 -0.0 0.0 0.0 -0.0 0.0 0.0 -1.71054e-13 -5.48418e-13 2.91157e-14 42.0829 18.1548 -1.10197 -9.11495 -4.53313 14.9788 -0.0127958 6.82427 0.958594 2.73564e-09 2.42224e-09 -3.46357e-10 4.72288e-09 4.18529e-09 -6.3059e-10 2.73564e-09 2.42225e-09 -3.46361e-10 7.73091 5.47488 0.417314 2.73564e-09 2.42225e-09 -3.46352e-10 2.90554 0.965183 0.102902 2.73565e-09 2.42225e-09 -3.46351e-10 10.2786 0.731801 0.0259123 2.73564e-09 2.42225e-09 -3.46344e-10 2.22167 -0.733487 -0.20892 -1.71134e-13 -5.48417e-13 2.88797e-14 -42.4873 3.56868 0.593992 6.39478 -2.67203 -10.7183 0.00291628 3.26955 -0.459449 1.17242e-09 2.50838e-09 4.75414e-09 2.05147e-09 4.32966e-09 8.20968e-09 1.17241e-09 2.50837e-09 4.75415e-09 -7.73091 5.47488 -0.417314 1.17242e-09 2.50838e-09 4.75414e-09 -2.90554 0.965183 -0.102902 1.17241e-09 2.50837e-09 4.75414e-09 -10.2786 0.731801 -0.0259123 1.17242e-09 2.50838e-09 4.75414e-09 -2.22167 -0.733487 0.20892 -2.03217e-16 0.0 -3.88251e-19 -1.26828 -9.45465 10.4054 0.0226392 19.2387 0.394077 -4.00034 -11.8046 -12.5686 2.03217e-16 0.0 3.88251e-19 -2.03573 -8.70393 -4.48572 0.00978708 13.907 -0.218265 1.74533 -5.31711 7.28683
-27.6949 83.8264 15.9003 19.3463 -78.7634 -16.2494 -6.72487 0.125988 4.99997 0.49238 -0.910332 1.43024 -4.10811 2.59886 -0.484577 8.18793 -15.957 1.33402 -0.0 0.0 0.0 -0.0 0.0 0.0 -2.39526e-13 -7.82461e-13 4.2856e-14 61.6202 26.4602 -1.70038 -12.5141 -6.3549 21.9218 -0.0963892 9.9664 1.41153 3.89187e-09 3.39699e-09 -4.59952e-10 6.71934e-09 5.86956e-09 -8.40007e-10 3.89187e-09 3.397e-09 -4.59955e-10 7.73091 5.47488 0.417314 3.89187e-09 3.397e-09 -4.59947e-10 2.90554 0.965183 0.102902 3.89188e-09 3.397e-09 -4.59947e-10 10.2786 0.731801 0.0259123 3.89187e-09 3.397e-09 -4.5994e-10 2.22167 -0.733487 -0.20892 -2.39557e-13 -7.82461e-13 4.26711e-14 -61.975 5.19199 0.871301 8.99444 -3.81949 -15.65 0.0218333 4.76765 -0.671224 1.7077e-09 3.51629e-09 6.66328e-09 2.98665e-09 6.06911e-09 1.15062e-08 1.7077e-09 3.51629e-09 6.66328e-09 -7.73091 5.47488 -0.417314 1.7077e-09 3.51629e-09 6.66328e-09 -2.90554 0.965183 -0.102902 1.7077e-09 3.51629e-09 6.66328e-09 -10.2786 0.731801 -0.0259123 1.70771e-09 3.5163e-09 6.66327e-09 -2.22167 -0.733487 0.20892 -2.03217e-16 0.0 -3.88251e-19 -1.67138 -11.5025 15.3187 -0.0526136 26.8089 0.611759 -7.68342 -17.5396 -18.8862 2.03217e-16 0.0 3.88251e-19 -3.28576 -11.5854 -6.61368 0.0649459 20.9015 -0.365048 3.10485 -9.33683 10.791
